<mxfile host="app.diagrams.net" modified="2024-05-01T10:41:16.075Z" agent="Mozilla/5.0 (Macintosh; Intel Mac OS X 10_15_7) AppleWebKit/537.36 (KHTML, like Gecko) Chrome/124.0.0.0 Safari/537.36" etag="oSQr2qsLL6P6nrt7NK38" version="24.2.3" type="device">
  <diagram name="Página-1" id="CJy-l9Uvm9EcSHy6rgvR">
    <mxGraphModel dx="984" dy="566" grid="1" gridSize="10" guides="1" tooltips="1" connect="1" arrows="1" fold="1" page="1" pageScale="1" pageWidth="827" pageHeight="1169" math="0" shadow="0">
      <root>
        <mxCell id="0" />
        <mxCell id="1" parent="0" />
        <mxCell id="6g1kMIfiYJru2VWeIad0-1" value="CU gestion producción&lt;div&gt;&lt;br&gt;&lt;/div&gt;" style="shape=umlFrame;whiteSpace=wrap;html=1;pointerEvents=0;" vertex="1" parent="1">
          <mxGeometry x="150" y="110" width="670" height="570" as="geometry" />
        </mxCell>
        <mxCell id="6g1kMIfiYJru2VWeIad0-2" value="Gestión Producción" style="text;html=1;align=center;verticalAlign=middle;resizable=0;points=[];autosize=1;strokeColor=none;fillColor=none;" vertex="1" parent="1">
          <mxGeometry x="415" y="120" width="130" height="30" as="geometry" />
        </mxCell>
        <mxCell id="6g1kMIfiYJru2VWeIad0-3" value="Gerente de Producción" style="shape=umlActor;verticalLabelPosition=bottom;verticalAlign=top;html=1;" vertex="1" parent="1">
          <mxGeometry x="50" y="280" width="30" height="60" as="geometry" />
        </mxCell>
        <mxCell id="6g1kMIfiYJru2VWeIad0-4" value="Módulo de control de producción" style="shape=umlFrame;whiteSpace=wrap;html=1;pointerEvents=0;" vertex="1" parent="1">
          <mxGeometry x="180" y="170" width="610" height="290" as="geometry" />
        </mxCell>
        <mxCell id="6g1kMIfiYJru2VWeIad0-5" value="CU06 - Supervisar Ordenes de Trabajo" style="ellipse;whiteSpace=wrap;html=1;" vertex="1" parent="1">
          <mxGeometry x="250" y="235" width="140" height="70" as="geometry" />
        </mxCell>
        <mxCell id="6g1kMIfiYJru2VWeIad0-6" value="" style="endArrow=classic;html=1;rounded=0;entryX=0;entryY=0.5;entryDx=0;entryDy=0;" edge="1" parent="1" target="6g1kMIfiYJru2VWeIad0-5">
          <mxGeometry width="50" height="50" relative="1" as="geometry">
            <mxPoint x="80" y="320" as="sourcePoint" />
            <mxPoint x="130" y="270" as="targetPoint" />
          </mxGeometry>
        </mxCell>
        <mxCell id="6g1kMIfiYJru2VWeIad0-7" value="CU07 - Generar Solicitud de Material" style="ellipse;whiteSpace=wrap;html=1;" vertex="1" parent="1">
          <mxGeometry x="530" y="235" width="140" height="70" as="geometry" />
        </mxCell>
        <mxCell id="6g1kMIfiYJru2VWeIad0-8" value="" style="endArrow=block;dashed=1;endFill=0;endSize=12;html=1;rounded=0;" edge="1" parent="1" source="6g1kMIfiYJru2VWeIad0-5">
          <mxGeometry width="160" relative="1" as="geometry">
            <mxPoint x="390" y="270" as="sourcePoint" />
            <mxPoint x="530" y="270" as="targetPoint" />
          </mxGeometry>
        </mxCell>
        <mxCell id="6g1kMIfiYJru2VWeIad0-9" value="Extend" style="text;html=1;align=center;verticalAlign=middle;resizable=0;points=[];autosize=1;strokeColor=none;fillColor=none;" vertex="1" parent="1">
          <mxGeometry x="420" y="248" width="60" height="30" as="geometry" />
        </mxCell>
        <mxCell id="6g1kMIfiYJru2VWeIad0-10" value="Módulo de producción" style="shape=umlFrame;whiteSpace=wrap;html=1;pointerEvents=0;" vertex="1" parent="1">
          <mxGeometry x="180" y="480" width="610" height="180" as="geometry" />
        </mxCell>
        <mxCell id="6g1kMIfiYJru2VWeIad0-12" value="CU09 - Realizar Orden de Trabajo" style="ellipse;whiteSpace=wrap;html=1;" vertex="1" parent="1">
          <mxGeometry x="420" y="535" width="140" height="70" as="geometry" />
        </mxCell>
        <mxCell id="6g1kMIfiYJru2VWeIad0-21" value="" style="endArrow=block;dashed=1;endFill=0;endSize=12;html=1;rounded=0;entryX=0;entryY=0.5;entryDx=0;entryDy=0;" edge="1" parent="1" target="6g1kMIfiYJru2VWeIad0-22">
          <mxGeometry width="160" relative="1" as="geometry">
            <mxPoint x="340" y="305" as="sourcePoint" />
            <mxPoint x="480" y="305" as="targetPoint" />
          </mxGeometry>
        </mxCell>
        <mxCell id="6g1kMIfiYJru2VWeIad0-25" value="Include" style="edgeLabel;html=1;align=center;verticalAlign=middle;resizable=0;points=[];" vertex="1" connectable="0" parent="6g1kMIfiYJru2VWeIad0-21">
          <mxGeometry x="0.0533" y="1" relative="1" as="geometry">
            <mxPoint as="offset" />
          </mxGeometry>
        </mxCell>
        <mxCell id="6g1kMIfiYJru2VWeIad0-22" value="CU08 - Asignar Orden de Trabajo" style="ellipse;whiteSpace=wrap;html=1;" vertex="1" parent="1">
          <mxGeometry x="520" y="330" width="140" height="70" as="geometry" />
        </mxCell>
        <mxCell id="6g1kMIfiYJru2VWeIad0-23" value="Operario" style="shape=umlActor;verticalLabelPosition=bottom;verticalAlign=top;html=1;" vertex="1" parent="1">
          <mxGeometry x="40" y="525" width="30" height="60" as="geometry" />
        </mxCell>
        <mxCell id="6g1kMIfiYJru2VWeIad0-24" value="" style="endArrow=classic;html=1;rounded=0;entryX=0;entryY=0.371;entryDx=0;entryDy=0;entryPerimeter=0;" edge="1" parent="1" target="6g1kMIfiYJru2VWeIad0-12">
          <mxGeometry width="50" height="50" relative="1" as="geometry">
            <mxPoint x="60" y="560" as="sourcePoint" />
            <mxPoint x="110" y="510" as="targetPoint" />
          </mxGeometry>
        </mxCell>
      </root>
    </mxGraphModel>
  </diagram>
</mxfile>
